<?xml version="1.0" encoding="UTF-8" standalone="no"?><svg xmlns="http://www.w3.org/2000/svg" xmlns:xlink="http://www.w3.org/1999/xlink" contentStyleType="text/css" height="750px" preserveAspectRatio="none" style="width:1219px;height:750px;background:#FFFFFF;" version="1.1" viewBox="0 0 1219 750" width="1219px" zoomAndPan="magnify"><defs/><g><line style="stroke:#181818;stroke-width:1.5;" x1="44" x2="44" y1="66.3887" y2="86.3887"/><rect fill="#F1F1F1" height="36.3887" style="stroke:#181818;stroke-width:1.5;" width="68" x="10" y="86.3887"/><text fill="#000000" font-family="sans-serif" font-size="12" lengthAdjust="spacing" textLength="48" x="20" y="110.1406">项目管理</text><line style="stroke:#181818;stroke-width:1.5;" x1="44" x2="54" y1="155.9717" y2="155.9717"/><rect fill="#F1F1F1" height="36.3887" style="stroke:#181818;stroke-width:1.5;" width="68" x="54" y="137.7773"/><text fill="#000000" font-family="sans-serif" font-size="12" lengthAdjust="spacing" textLength="48" x="64" y="161.5293">项目启动</text><line style="stroke:#181818;stroke-width:1.5;" x1="44" x2="54" y1="207.3604" y2="207.3604"/><rect fill="#F1F1F1" height="36.3887" style="stroke:#181818;stroke-width:1.5;" width="92" x="54" y="189.166"/><text fill="#000000" font-family="sans-serif" font-size="12" lengthAdjust="spacing" textLength="72" x="64" y="212.918">项目开工会议</text><line style="stroke:#181818;stroke-width:1.5;" x1="44" x2="54" y1="258.749" y2="258.749"/><rect fill="#F1F1F1" height="36.3887" style="stroke:#181818;stroke-width:1.5;" width="68" x="54" y="240.5547"/><text fill="#000000" font-family="sans-serif" font-size="12" lengthAdjust="spacing" textLength="48" x="64" y="264.3066">项目计划</text><line style="stroke:#181818;stroke-width:1.5;" x1="88" x2="98" y1="310.1377" y2="310.1377"/><rect fill="#F1F1F1" height="36.3887" style="stroke:#181818;stroke-width:1.5;" width="68" x="98" y="291.9434"/><text fill="#000000" font-family="sans-serif" font-size="12" lengthAdjust="spacing" textLength="48" x="108" y="315.6953">范围计划</text><line style="stroke:#181818;stroke-width:1.5;" x1="88" x2="98" y1="361.5264" y2="361.5264"/><rect fill="#F1F1F1" height="36.3887" style="stroke:#181818;stroke-width:1.5;" width="95" x="98" y="343.332"/><text fill="#000000" font-family="sans-serif" font-size="12" lengthAdjust="spacing" textLength="75" x="108" y="367.084">任务/活动定义</text><line style="stroke:#181818;stroke-width:1.5;" x1="88" x2="98" y1="412.915" y2="412.915"/><rect fill="#F1F1F1" height="36.3887" style="stroke:#181818;stroke-width:1.5;" width="80" x="98" y="394.7207"/><text fill="#000000" font-family="sans-serif" font-size="12" lengthAdjust="spacing" textLength="60" x="108" y="418.4727">项目进度表</text><line style="stroke:#181818;stroke-width:1.5;" x1="88" x2="98" y1="464.3037" y2="464.3037"/><rect fill="#F1F1F1" height="36.3887" style="stroke:#181818;stroke-width:1.5;" width="92" x="98" y="446.1094"/><text fill="#000000" font-family="sans-serif" font-size="12" lengthAdjust="spacing" textLength="72" x="108" y="469.8613">工作分解结构</text><line style="stroke:#181818;stroke-width:1.5;" x1="88" x2="98" y1="515.6924" y2="515.6924"/><rect fill="#F1F1F1" height="36.3887" style="stroke:#181818;stroke-width:1.5;" width="68" x="98" y="497.498"/><text fill="#000000" font-family="sans-serif" font-size="12" lengthAdjust="spacing" textLength="48" x="108" y="521.25">质量计划</text><line style="stroke:#181818;stroke-width:1.5;" x1="88" x2="88" y1="276.9434" y2="515.6924"/><line style="stroke:#181818;stroke-width:1.5;" x1="44" x2="54" y1="567.0811" y2="567.0811"/><rect fill="#F1F1F1" height="36.3887" style="stroke:#181818;stroke-width:1.5;" width="68" x="54" y="548.8867"/><text fill="#000000" font-family="sans-serif" font-size="12" lengthAdjust="spacing" textLength="48" x="64" y="572.6387">项目沟通</text><line style="stroke:#181818;stroke-width:1.5;" x1="44" x2="54" y1="618.4697" y2="618.4697"/><rect fill="#F1F1F1" height="36.3887" style="stroke:#181818;stroke-width:1.5;" width="92" x="54" y="600.2754"/><text fill="#000000" font-family="sans-serif" font-size="12" lengthAdjust="spacing" textLength="72" x="64" y="624.0273">项目团队建议</text><line style="stroke:#181818;stroke-width:1.5;" x1="44" x2="54" y1="669.8584" y2="669.8584"/><rect fill="#F1F1F1" height="36.3887" style="stroke:#181818;stroke-width:1.5;" width="92" x="54" y="651.6641"/><text fill="#000000" font-family="sans-serif" font-size="12" lengthAdjust="spacing" textLength="72" x="64" y="675.416">项目风险监控</text><line style="stroke:#181818;stroke-width:1.5;" x1="44" x2="54" y1="721.2471" y2="721.2471"/><rect fill="#F1F1F1" height="36.3887" style="stroke:#181818;stroke-width:1.5;" width="92" x="54" y="703.0527"/><text fill="#000000" font-family="sans-serif" font-size="12" lengthAdjust="spacing" textLength="72" x="64" y="726.8047">项目收尾总结</text><line style="stroke:#181818;stroke-width:1.5;" x1="44" x2="44" y1="122.7773" y2="721.2471"/><line style="stroke:#181818;stroke-width:1.5;" x1="247" x2="247" y1="66.3887" y2="86.3887"/><rect fill="#F1F1F1" height="36.3887" style="stroke:#181818;stroke-width:1.5;" width="68" x="213" y="86.3887"/><text fill="#000000" font-family="sans-serif" font-size="12" lengthAdjust="spacing" textLength="48" x="223" y="110.1406">系统定义</text><line style="stroke:#181818;stroke-width:1.5;" x1="247" x2="257" y1="155.9717" y2="155.9717"/><rect fill="#F1F1F1" height="36.3887" style="stroke:#181818;stroke-width:1.5;" width="68" x="257" y="137.7773"/><text fill="#000000" font-family="sans-serif" font-size="12" lengthAdjust="spacing" textLength="48" x="267" y="161.5293">定义目标</text><line style="stroke:#181818;stroke-width:1.5;" x1="291" x2="301" y1="207.3604" y2="207.3604"/><rect fill="#F1F1F1" height="36.3887" style="stroke:#181818;stroke-width:1.5;" width="92" x="301" y="189.166"/><text fill="#000000" font-family="sans-serif" font-size="12" lengthAdjust="spacing" textLength="72" x="311" y="212.918">系统总体目标</text><line style="stroke:#181818;stroke-width:1.5;" x1="291" x2="301" y1="258.749" y2="258.749"/><rect fill="#F1F1F1" height="36.3887" style="stroke:#181818;stroke-width:1.5;" width="92" x="301" y="240.5547"/><text fill="#000000" font-family="sans-serif" font-size="12" lengthAdjust="spacing" textLength="72" x="311" y="264.3066">确定各子目标</text><line style="stroke:#181818;stroke-width:1.5;" x1="291" x2="301" y1="310.1377" y2="310.1377"/><rect fill="#F1F1F1" height="36.3887" style="stroke:#181818;stroke-width:1.5;" width="92" x="301" y="291.9434"/><text fill="#000000" font-family="sans-serif" font-size="12" lengthAdjust="spacing" textLength="72" x="311" y="315.6953">明确关键事件</text><line style="stroke:#181818;stroke-width:1.5;" x1="291" x2="291" y1="174.166" y2="310.1377"/><line style="stroke:#181818;stroke-width:1.5;" x1="247" x2="257" y1="361.5264" y2="361.5264"/><rect fill="#F1F1F1" height="36.3887" style="stroke:#181818;stroke-width:1.5;" width="68" x="257" y="343.332"/><text fill="#000000" font-family="sans-serif" font-size="12" lengthAdjust="spacing" textLength="48" x="267" y="367.084">定义需求</text><line style="stroke:#181818;stroke-width:1.5;" x1="291" x2="301" y1="412.915" y2="412.915"/><rect fill="#F1F1F1" height="36.3887" style="stroke:#181818;stroke-width:1.5;" width="92" x="301" y="394.7207"/><text fill="#000000" font-family="sans-serif" font-size="12" lengthAdjust="spacing" textLength="72" x="311" y="418.4727">获得既定需求</text><line style="stroke:#181818;stroke-width:1.5;" x1="291" x2="301" y1="464.3037" y2="464.3037"/><rect fill="#F1F1F1" height="36.3887" style="stroke:#181818;stroke-width:1.5;" width="80" x="301" y="446.1094"/><text fill="#000000" font-family="sans-serif" font-size="12" lengthAdjust="spacing" textLength="60" x="311" y="469.8613">定义新需求</text><line style="stroke:#181818;stroke-width:1.5;" x1="291" x2="301" y1="515.6924" y2="515.6924"/><rect fill="#F1F1F1" height="36.3887" style="stroke:#181818;stroke-width:1.5;" width="92" x="301" y="497.498"/><text fill="#000000" font-family="sans-serif" font-size="12" lengthAdjust="spacing" textLength="72" x="311" y="521.25">设计测试用例</text><line style="stroke:#181818;stroke-width:1.5;" x1="291" x2="291" y1="379.7207" y2="515.6924"/><line style="stroke:#181818;stroke-width:1.5;" x1="247" x2="257" y1="567.0811" y2="567.0811"/><rect fill="#F1F1F1" height="36.3887" style="stroke:#181818;stroke-width:1.5;" width="116" x="257" y="548.8867"/><text fill="#000000" font-family="sans-serif" font-size="12" lengthAdjust="spacing" textLength="96" x="267" y="572.6387">选择系统开发方法</text><line style="stroke:#181818;stroke-width:1.5;" x1="247" x2="257" y1="618.4697" y2="618.4697"/><rect fill="#F1F1F1" height="36.3887" style="stroke:#181818;stroke-width:1.5;" width="44" x="257" y="600.2754"/><text fill="#000000" font-family="sans-serif" font-size="12" lengthAdjust="spacing" textLength="24" x="267" y="624.0273">审批</text><line style="stroke:#181818;stroke-width:1.5;" x1="247" x2="247" y1="122.7773" y2="618.4697"/><line style="stroke:#181818;stroke-width:1.5;" x1="447" x2="447" y1="66.3887" y2="86.3887"/><rect fill="#F1F1F1" height="36.3887" style="stroke:#181818;stroke-width:1.5;" width="68" x="413" y="86.3887"/><text fill="#000000" font-family="sans-serif" font-size="12" lengthAdjust="spacing" textLength="48" x="423" y="110.1406">系统设计</text><line style="stroke:#181818;stroke-width:1.5;" x1="447" x2="457" y1="155.9717" y2="155.9717"/><rect fill="#F1F1F1" height="36.3887" style="stroke:#181818;stroke-width:1.5;" width="68" x="457" y="137.7773"/><text fill="#000000" font-family="sans-serif" font-size="12" lengthAdjust="spacing" textLength="48" x="467" y="161.5293">系统功能</text><line style="stroke:#181818;stroke-width:1.5;" x1="491" x2="501" y1="207.3604" y2="207.3604"/><rect fill="#F1F1F1" height="36.3887" style="stroke:#181818;stroke-width:1.5;" width="92" x="501" y="189.166"/><text fill="#000000" font-family="sans-serif" font-size="12" lengthAdjust="spacing" textLength="72" x="511" y="212.918">定义系统接口</text><line style="stroke:#181818;stroke-width:1.5;" x1="491" x2="501" y1="258.749" y2="258.749"/><rect fill="#F1F1F1" height="36.3887" style="stroke:#181818;stroke-width:1.5;" width="56" x="501" y="240.5547"/><text fill="#000000" font-family="sans-serif" font-size="12" lengthAdjust="spacing" textLength="36" x="511" y="264.3066">IO设计</text><line style="stroke:#181818;stroke-width:1.5;" x1="491" x2="501" y1="310.1377" y2="310.1377"/><rect fill="#F1F1F1" height="36.3887" style="stroke:#181818;stroke-width:1.5;" width="95" x="501" y="291.9434"/><text fill="#000000" font-family="sans-serif" font-size="12" lengthAdjust="spacing" textLength="75" x="511" y="315.6953">系统审计/控制</text><line style="stroke:#181818;stroke-width:1.5;" x1="491" x2="501" y1="361.5264" y2="361.5264"/><rect fill="#F1F1F1" height="36.3887" style="stroke:#181818;stroke-width:1.5;" width="92" x="501" y="343.332"/><text fill="#000000" font-family="sans-serif" font-size="12" lengthAdjust="spacing" textLength="72" x="511" y="367.084">功能计划确认</text><line style="stroke:#181818;stroke-width:1.5;" x1="491" x2="491" y1="174.166" y2="361.5264"/><line style="stroke:#181818;stroke-width:1.5;" x1="447" x2="457" y1="412.915" y2="412.915"/><rect fill="#F1F1F1" height="36.3887" style="stroke:#181818;stroke-width:1.5;" width="68" x="457" y="394.7207"/><text fill="#000000" font-family="sans-serif" font-size="12" lengthAdjust="spacing" textLength="48" x="467" y="418.4727">系统技术</text><line style="stroke:#181818;stroke-width:1.5;" x1="491" x2="501" y1="464.3037" y2="464.3037"/><rect fill="#F1F1F1" height="36.3887" style="stroke:#181818;stroke-width:1.5;" width="68" x="501" y="446.1094"/><text fill="#000000" font-family="sans-serif" font-size="12" lengthAdjust="spacing" textLength="48" x="511" y="469.8613">模块说明</text><line style="stroke:#181818;stroke-width:1.5;" x1="491" x2="501" y1="515.6924" y2="515.6924"/><rect fill="#F1F1F1" height="36.3887" style="stroke:#181818;stroke-width:1.5;" width="68" x="501" y="497.498"/><text fill="#000000" font-family="sans-serif" font-size="12" lengthAdjust="spacing" textLength="48" x="511" y="521.25">系统流程</text><line style="stroke:#181818;stroke-width:1.5;" x1="491" x2="501" y1="567.0811" y2="567.0811"/><rect fill="#F1F1F1" height="36.3887" style="stroke:#181818;stroke-width:1.5;" width="68" x="501" y="548.8867"/><text fill="#000000" font-family="sans-serif" font-size="12" lengthAdjust="spacing" textLength="48" x="511" y="572.6387">数据转换</text><line style="stroke:#181818;stroke-width:1.5;" x1="491" x2="501" y1="618.4697" y2="618.4697"/><rect fill="#F1F1F1" height="36.3887" style="stroke:#181818;stroke-width:1.5;" width="92" x="501" y="600.2754"/><text fill="#000000" font-family="sans-serif" font-size="12" lengthAdjust="spacing" textLength="72" x="511" y="624.0273">集成测试计划</text><line style="stroke:#181818;stroke-width:1.5;" x1="491" x2="501" y1="669.8584" y2="669.8584"/><rect fill="#F1F1F1" height="36.3887" style="stroke:#181818;stroke-width:1.5;" width="44" x="501" y="651.6641"/><text fill="#000000" font-family="sans-serif" font-size="12" lengthAdjust="spacing" textLength="24" x="511" y="675.416">审批</text><line style="stroke:#181818;stroke-width:1.5;" x1="491" x2="491" y1="431.1094" y2="669.8584"/><line style="stroke:#181818;stroke-width:1.5;" x1="447" x2="447" y1="122.7773" y2="412.915"/><line style="stroke:#181818;stroke-width:1.5;" x1="650" x2="650" y1="66.3887" y2="86.3887"/><rect fill="#F1F1F1" height="36.3887" style="stroke:#181818;stroke-width:1.5;" width="68" x="616" y="86.3887"/><text fill="#000000" font-family="sans-serif" font-size="12" lengthAdjust="spacing" textLength="48" x="626" y="110.1406">系统实现</text><line style="stroke:#181818;stroke-width:1.5;" x1="650" x2="660" y1="155.9717" y2="155.9717"/><rect fill="#F1F1F1" height="36.3887" style="stroke:#181818;stroke-width:1.5;" width="68" x="660" y="137.7773"/><text fill="#000000" font-family="sans-serif" font-size="12" lengthAdjust="spacing" textLength="48" x="670" y="161.5293">程序编码</text><line style="stroke:#181818;stroke-width:1.5;" x1="694" x2="704" y1="207.3604" y2="207.3604"/><rect fill="#F1F1F1" height="36.3887" style="stroke:#181818;stroke-width:1.5;" width="44" x="704" y="189.166"/><text fill="#000000" font-family="sans-serif" font-size="12" lengthAdjust="spacing" textLength="24" x="714" y="212.918">编码</text><line style="stroke:#181818;stroke-width:1.5;" x1="694" x2="704" y1="258.749" y2="258.749"/><rect fill="#F1F1F1" height="36.3887" style="stroke:#181818;stroke-width:1.5;" width="68" x="704" y="240.5547"/><text fill="#000000" font-family="sans-serif" font-size="12" lengthAdjust="spacing" textLength="48" x="714" y="264.3066">单元测试</text><line style="stroke:#181818;stroke-width:1.5;" x1="694" x2="694" y1="174.166" y2="258.749"/><line style="stroke:#181818;stroke-width:1.5;" x1="650" x2="660" y1="310.1377" y2="310.1377"/><rect fill="#F1F1F1" height="36.3887" style="stroke:#181818;stroke-width:1.5;" width="42" x="660" y="291.9434"/><text fill="#000000" font-family="sans-serif" font-size="12" lengthAdjust="spacing" textLength="22" x="670" y="315.6953">JCL</text><line style="stroke:#181818;stroke-width:1.5;" x1="681" x2="691" y1="361.5264" y2="361.5264"/><rect fill="#F1F1F1" height="36.3887" style="stroke:#181818;stroke-width:1.5;" width="66" x="691" y="343.332"/><text fill="#000000" font-family="sans-serif" font-size="12" lengthAdjust="spacing" textLength="46" x="701" y="367.084">JCL编码</text><line style="stroke:#181818;stroke-width:1.5;" x1="681" x2="691" y1="412.915" y2="412.915"/><rect fill="#F1F1F1" height="36.3887" style="stroke:#181818;stroke-width:1.5;" width="68" x="691" y="394.7207"/><text fill="#000000" font-family="sans-serif" font-size="12" lengthAdjust="spacing" textLength="48" x="701" y="418.4727">单元测试</text><line style="stroke:#181818;stroke-width:1.5;" x1="681" x2="681" y1="328.332" y2="412.915"/><line style="stroke:#181818;stroke-width:1.5;" x1="650" x2="660" y1="464.3037" y2="464.3037"/><rect fill="#F1F1F1" height="36.3887" style="stroke:#181818;stroke-width:1.5;" width="68" x="660" y="446.1094"/><text fill="#000000" font-family="sans-serif" font-size="12" lengthAdjust="spacing" textLength="48" x="670" y="469.8613">文档编写</text><line style="stroke:#181818;stroke-width:1.5;" x1="650" x2="660" y1="515.6924" y2="515.6924"/><rect fill="#F1F1F1" height="36.3887" style="stroke:#181818;stroke-width:1.5;" width="68" x="660" y="497.498"/><text fill="#000000" font-family="sans-serif" font-size="12" lengthAdjust="spacing" textLength="48" x="670" y="521.25">集成测试</text><line style="stroke:#181818;stroke-width:1.5;" x1="694" x2="704" y1="567.0811" y2="567.0811"/><rect fill="#F1F1F1" height="36.3887" style="stroke:#181818;stroke-width:1.5;" width="92" x="704" y="548.8867"/><text fill="#000000" font-family="sans-serif" font-size="12" lengthAdjust="spacing" textLength="72" x="714" y="572.6387">测试方案定制</text><line style="stroke:#181818;stroke-width:1.5;" x1="694" x2="704" y1="618.4697" y2="618.4697"/><rect fill="#F1F1F1" height="36.3887" style="stroke:#181818;stroke-width:1.5;" width="44" x="704" y="600.2754"/><text fill="#000000" font-family="sans-serif" font-size="12" lengthAdjust="spacing" textLength="24" x="714" y="624.0273">测试</text><line style="stroke:#181818;stroke-width:1.5;" x1="694" x2="704" y1="669.8584" y2="669.8584"/><rect fill="#F1F1F1" height="36.3887" style="stroke:#181818;stroke-width:1.5;" width="92" x="704" y="651.6641"/><text fill="#000000" font-family="sans-serif" font-size="12" lengthAdjust="spacing" textLength="72" x="714" y="675.416">编写测试报告</text><line style="stroke:#181818;stroke-width:1.5;" x1="694" x2="694" y1="533.8867" y2="669.8584"/><line style="stroke:#181818;stroke-width:1.5;" x1="650" x2="650" y1="122.7773" y2="515.6924"/><line style="stroke:#181818;stroke-width:1.5;" x1="850" x2="850" y1="66.3887" y2="86.3887"/><rect fill="#F1F1F1" height="36.3887" style="stroke:#181818;stroke-width:1.5;" width="68" x="816" y="86.3887"/><text fill="#000000" font-family="sans-serif" font-size="12" lengthAdjust="spacing" textLength="48" x="826" y="110.1406">系统交付</text><line style="stroke:#181818;stroke-width:1.5;" x1="850" x2="860" y1="155.9717" y2="155.9717"/><rect fill="#F1F1F1" height="36.3887" style="stroke:#181818;stroke-width:1.5;" width="68" x="860" y="137.7773"/><text fill="#000000" font-family="sans-serif" font-size="12" lengthAdjust="spacing" textLength="48" x="870" y="161.5293">系统安装</text><line style="stroke:#181818;stroke-width:1.5;" x1="850" x2="860" y1="207.3604" y2="207.3604"/><rect fill="#F1F1F1" height="36.3887" style="stroke:#181818;stroke-width:1.5;" width="44" x="860" y="189.166"/><text fill="#000000" font-family="sans-serif" font-size="12" lengthAdjust="spacing" textLength="24" x="870" y="212.918">培训</text><line style="stroke:#181818;stroke-width:1.5;" x1="882" x2="892" y1="258.749" y2="258.749"/><rect fill="#F1F1F1" height="36.3887" style="stroke:#181818;stroke-width:1.5;" width="92" x="892" y="240.5547"/><text fill="#000000" font-family="sans-serif" font-size="12" lengthAdjust="spacing" textLength="72" x="902" y="264.3066">最终用户培训</text><line style="stroke:#181818;stroke-width:1.5;" x1="882" x2="892" y1="310.1377" y2="310.1377"/><rect fill="#F1F1F1" height="36.3887" style="stroke:#181818;stroke-width:1.5;" width="104" x="892" y="291.9434"/><text fill="#000000" font-family="sans-serif" font-size="12" lengthAdjust="spacing" textLength="84" x="902" y="315.6953">系统管理员培训</text><line style="stroke:#181818;stroke-width:1.5;" x1="882" x2="882" y1="225.5547" y2="310.1377"/><line style="stroke:#181818;stroke-width:1.5;" x1="850" x2="860" y1="361.5264" y2="361.5264"/><rect fill="#F1F1F1" height="36.3887" style="stroke:#181818;stroke-width:1.5;" width="56" x="860" y="343.332"/><text fill="#000000" font-family="sans-serif" font-size="12" lengthAdjust="spacing" textLength="36" x="870" y="367.084">试运行</text><line style="stroke:#181818;stroke-width:1.5;" x1="850" x2="860" y1="412.915" y2="412.915"/><rect fill="#F1F1F1" height="36.3887" style="stroke:#181818;stroke-width:1.5;" width="68" x="860" y="394.7207"/><text fill="#000000" font-family="sans-serif" font-size="12" lengthAdjust="spacing" textLength="48" x="870" y="418.4727">系统切换</text><line style="stroke:#181818;stroke-width:1.5;" x1="894" x2="904" y1="464.3037" y2="464.3037"/><rect fill="#F1F1F1" height="36.3887" style="stroke:#181818;stroke-width:1.5;" width="92" x="904" y="446.1094"/><text fill="#000000" font-family="sans-serif" font-size="12" lengthAdjust="spacing" textLength="72" x="914" y="469.8613">却换方案确定</text><line style="stroke:#181818;stroke-width:1.5;" x1="894" x2="904" y1="515.6924" y2="515.6924"/><rect fill="#F1F1F1" height="36.3887" style="stroke:#181818;stroke-width:1.5;" width="68" x="904" y="497.498"/><text fill="#000000" font-family="sans-serif" font-size="12" lengthAdjust="spacing" textLength="48" x="914" y="521.25">数据转换</text><line style="stroke:#181818;stroke-width:1.5;" x1="894" x2="904" y1="567.0811" y2="567.0811"/><rect fill="#F1F1F1" height="36.3887" style="stroke:#181818;stroke-width:1.5;" width="104" x="904" y="548.8867"/><text fill="#000000" font-family="sans-serif" font-size="12" lengthAdjust="spacing" textLength="84" x="914" y="572.6387">切换到成产系统</text><line style="stroke:#181818;stroke-width:1.5;" x1="894" x2="894" y1="431.1094" y2="567.0811"/><line style="stroke:#181818;stroke-width:1.5;" x1="850" x2="860" y1="618.4697" y2="618.4697"/><rect fill="#F1F1F1" height="36.3887" style="stroke:#181818;stroke-width:1.5;" width="44" x="860" y="600.2754"/><text fill="#000000" font-family="sans-serif" font-size="12" lengthAdjust="spacing" textLength="24" x="870" y="624.0273">验收</text><line style="stroke:#181818;stroke-width:1.5;" x1="850" x2="850" y1="122.7773" y2="618.4697"/><line style="stroke:#181818;stroke-width:1.5;" x1="1062" x2="1062" y1="66.3887" y2="86.3887"/><rect fill="#F1F1F1" height="36.3887" style="stroke:#181818;stroke-width:1.5;" width="68" x="1028" y="86.3887"/><text fill="#000000" font-family="sans-serif" font-size="12" lengthAdjust="spacing" textLength="48" x="1038" y="110.1406">系统运行</text><line style="stroke:#181818;stroke-width:1.5;" x1="1062" x2="1072" y1="155.9717" y2="155.9717"/><rect fill="#F1F1F1" height="36.3887" style="stroke:#181818;stroke-width:1.5;" width="68" x="1072" y="137.7773"/><text fill="#000000" font-family="sans-serif" font-size="12" lengthAdjust="spacing" textLength="48" x="1082" y="161.5293">日常操作</text><line style="stroke:#181818;stroke-width:1.5;" x1="1062" x2="1072" y1="207.3604" y2="207.3604"/><rect fill="#F1F1F1" height="36.3887" style="stroke:#181818;stroke-width:1.5;" width="68" x="1072" y="189.166"/><text fill="#000000" font-family="sans-serif" font-size="12" lengthAdjust="spacing" textLength="48" x="1082" y="212.918">运行检查</text><line style="stroke:#181818;stroke-width:1.5;" x1="1106" x2="1116" y1="258.749" y2="258.749"/><rect fill="#F1F1F1" height="36.3887" style="stroke:#181818;stroke-width:1.5;" width="92" x="1116" y="240.5547"/><text fill="#000000" font-family="sans-serif" font-size="12" lengthAdjust="spacing" textLength="72" x="1126" y="264.3066">运行检查计划</text><line style="stroke:#181818;stroke-width:1.5;" x1="1106" x2="1116" y1="310.1377" y2="310.1377"/><rect fill="#F1F1F1" height="36.3887" style="stroke:#181818;stroke-width:1.5;" width="92" x="1116" y="291.9434"/><text fill="#000000" font-family="sans-serif" font-size="12" lengthAdjust="spacing" textLength="72" x="1126" y="315.6953">检查运行状况</text><line style="stroke:#181818;stroke-width:1.5;" x1="1106" x2="1106" y1="225.5547" y2="310.1377"/><line style="stroke:#181818;stroke-width:1.5;" x1="1062" x2="1072" y1="361.5264" y2="361.5264"/><rect fill="#F1F1F1" height="36.3887" style="stroke:#181818;stroke-width:1.5;" width="68" x="1072" y="343.332"/><text fill="#000000" font-family="sans-serif" font-size="12" lengthAdjust="spacing" textLength="48" x="1082" y="367.084">系统审计</text><line style="stroke:#181818;stroke-width:1.5;" x1="1062" x2="1062" y1="122.7773" y2="361.5264"/><line style="stroke:#181818;stroke-width:1.5;" x1="44" x2="1062" y1="66.3887" y2="66.3887"/><rect fill="#F1F1F1" height="36.3887" style="stroke:#181818;stroke-width:1.5;" width="103" x="501.5" y="10"/><text fill="#000000" font-family="sans-serif" font-size="12" lengthAdjust="spacing" textLength="83" x="511.5" y="33.752">安宠居APP项目</text><line style="stroke:#181818;stroke-width:1.5;" x1="553" x2="553" y1="46.3887" y2="66.3887"/><!--MD5=[859868d4858842c391df45c6321a6473]
@startwbs
* 安宠居APP项目
** 项目管理
*** 项目启动
*** 项目开工会议
*** 项目计划
**** 范围计划
**** 任务/活动定义
**** 项目进度表
**** 工作分解结构
**** 质量计划
*** 项目沟通
*** 项目团队建议
*** 项目风险监控
*** 项目收尾总结
** 系统定义
*** 定义目标
**** 系统总体目标
**** 确定各子目标
**** 明确关键事件
*** 定义需求
**** 获得既定需求
**** 定义新需求
**** 设计测试用例
*** 选择系统开发方法
*** 审批
** 系统设计
*** 系统功能
**** 定义系统接口
**** IO设计
**** 系统审计/控制
**** 功能计划确认
*** 系统技术
**** 模块说明
**** 系统流程
**** 数据转换
**** 集成测试计划
**** 审批
** 系统实现
*** 程序编码
**** 编码
**** 单元测试
*** JCL
**** JCL编码
**** 单元测试
*** 文档编写
*** 集成测试
**** 测试方案定制
**** 测试
**** 编写测试报告
** 系统交付
*** 系统安装
*** 培训
**** 最终用户培训
**** 系统管理员培训
*** 试运行
*** 系统切换
**** 却换方案确定
**** 数据转换
**** 切换到成产系统
*** 验收
** 系统运行
*** 日常操作
*** 运行检查
**** 运行检查计划
**** 检查运行状况
*** 系统审计
@endwbs

PlantUML version 1.2022.7(Tue Aug 23 01:01:30 CST 2022)
(GPL source distribution)
Java Runtime: Java(TM) SE Runtime Environment
JVM: Java HotSpot(TM) 64-Bit Server VM
Default Encoding: GBK
Language: zh
Country: CN
--></g></svg>